# xmcd
#
# Track frame offsets: 
#        150
#        17287
#        37667
#        57592
#        74457
#        95947
#        118420
#        136817
#        157615
#        175552
#
# Disc length: 2599 seconds
#
# Revision: 3
# Processed by: cddbd v1.5.2PL0 Copyright (c) Steve Scherf et al.
# Submitted via: ExactAudioCopy v1.0b2
#
DISCID=7a0a250a
DTITLE=김현철 - Who Stepped on it
DYEAR=1995
DGENRE=K-Pop
TTITLE0=Street Performer
TTITLE1=왜그래 (작곡:김현철)
TTITLE2=나를... (작곡:김현철)
TTITLE3=그럼에도 불구하고 (작곡:김현철)
TTITLE4=물망초
TTITLE5=Who stepped on it
TTITLE6=그지 (작곡:김현철)
TTITLE7=아주 오래전 일이지
TTITLE8=늘 그렇지
TTITLE9=IT'S RAINING II
EXTD=YEAR: 1995
EXTT0=
EXTT1=
EXTT2=
EXTT3=
EXTT4=
EXTT5=
EXTT6=
EXTT7=
EXTT8=
EXTT9=
PLAYORDER=
